#!OML:ASF F:\VICON\USERDATA\INSTALL\rory3\rory3.ASF
:FULLY-SPECIFIED
:DEGREES
480
root 5.57547 17.3733 1.58727 17.7875 2.51082 0.993919
lowerback -17.0324 2.94256 10.9696
upperback -13.4263 2.57077 -0.0627964
thorax -4.6996 0.497713 -5.88764
lowerneck -5.5819 14.2473 5.29178
upperneck 11.8289 18.4345 2.73435
head 4.69008 9.46551 1.11205
rclavicle -8.74653e-015 5.56597e-015
rhumerus 54.7467 -0.509742 -16.4374
rradius 106.275
rwrist -43.4207
rhand -5.18125 -41.7379
rfingers 7.12502
rthumb 20.6193 -70.6627
lclavicle -8.74653e-015 5.56597e-015
lhumerus 39.8503 12.991 -5.61029
lradius 42.329
lwrist 51.1638
lhand -17.9112 -15.3457
lfingers 7.12502
lthumb 8.35607 14.469
rfemur -6.16247 12.7418 -8.13204
rtibia 6.23313
rfoot -12.251 -25.8264
rtoes 29.445
lfemur -16.9297 1.91827 -30.5909
ltibia 18.3913
lfoot -17.6064 3.80257
ltoes 8.14858
481
root 5.57711 17.3742 1.58631 17.7754 2.52706 0.974186
lowerback -16.9344 2.91805 10.9898
upperback -13.4066 2.54823 -0.0438188
thorax -4.73278 0.484749 -5.8841
lowerneck -5.65934 14.3074 5.27659
upperneck 11.809 18.5064 2.77379
head 4.69184 9.50168 1.13478
rclavicle 4.77083e-015 -3.4191e-014
rhumerus 54.5474 -0.906817 -16.2515
rradius 106.42
rwrist -43.2887
rhand -5.21998 -41.9572
rfingers 7.12502
rthumb 20.582 -70.8861
lclavicle 4.77083e-015 -3.4191e-014
lhumerus 39.7382 13.2107 -5.68185
lradius 42.2944
lwrist 51.1224
lhand -18.832 -15.7887
lfingers 7.12502
lthumb 7.46729 14.0595
rfemur -6.1075 12.7392 -8.09984
rtibia 6.17832
rfoot -12.3776 -25.7677
rtoes 29.7319
lfemur -16.9439 1.88384 -30.5651
ltibia 18.4311
lfoot -17.6269 3.82287
ltoes 8.43893
482
root 5.57783 17.3744 1.58634 17.784 2.54736 0.986444
lowerback -16.8411 2.89643 10.9894
upperback -13.4545 2.53586 -0.0419388
thorax -4.83859 0.471114 -5.88696
lowerneck -5.70686 14.2768 4.94838
upperneck 11.4179 18.4849 2.83823
head 4.54025 9.47785 1.17368
rclavicle 2.5842e-014 -5.56597e-015
rhumerus 54.2579 -1.24016 -16.0404
rradius 106.566
rwrist -43.3843
rhand -4.99716 -41.9353
rfingers 7.12502
rthumb 20.7961 -70.8409
lclavicle 2.5842e-014 -5.56597e-015
lhumerus 39.4827 13.0346 -6.20075
lradius 42.4479
lwrist 51.6104
lhand -19.8695 -15.8943
lfingers 7.12502
lthumb 6.46581 13.987
rfemur -6.17341 12.7156 -8.10272
rtibia 6.30888
rfoot -12.658 -25.5903
rtoes 30.1348
lfemur -16.9638 1.83081 -30.5717
ltibia 18.431
lfoot -17.6316 3.87496
ltoes 8.49024
483
root 5.5797 17.3726 1.58536 17.7778 2.59102 1.07719
lowerback -16.6765 2.83724 10.9513
upperback -13.5111 2.48848 -0.0608781
thorax -4.99694 0.438336 -5.89837
lowerneck -5.68606 14.4067 5.01708
upperneck 11.6286 18.6414 2.96326
head 4.5982 9.56722 1.21967
rclavicle -3.97569e-015 3.18055e-014
rhumerus 54.006 -1.5681 -15.7707
rradius 106.606
rwrist -43.3756
rhand -5.11672 -41.5982
rfingers 7.12502
rthumb 20.6813 -70.5163
lclavicle -3.97569e-015 3.18055e-014
lhumerus 39.326 12.9968 -6.5068
lradius 42.3943
lwrist 51.4313
lhand -19.8407 -15.8268
lfingers 7.12502
lthumb 6.49359 14.0536
rfemur -6.25285 12.6578 -8.18311
rtibia 6.55883
rfoot -13.2147 -25.2327
rtoes 31.0792
lfemur -16.9279 1.81953 -30.6646
ltibia 18.4025
lfoot -17.6109 3.82269
ltoes 8.34513
484
root 5.57917 17.3691 1.58527 17.7907 2.56299 1.15877
lowerback -16.5299 2.81078 10.8864
upperback -13.564 2.48335 -0.100365
thorax -5.13314 0.429185 -5.91058
lowerneck -5.83454 14.5457 5.15031
upperneck 12.1342 18.7787 3.206
head 4.77006 9.65945 1.31937
rclavicle 2.5842e-014 8.74653e-015
rhumerus 53.7145 -1.89433 -15.5125
rradius 106.626
rwrist -43.1639
rhand -5.38702 -41.4528
rfingers 7.12502
rthumb 20.4215 -70.399
lclavicle 2.5842e-014 8.74653e-015
lhumerus 39.1752 13.0394 -6.82049
lradius 42.3831
lwrist 51.3975
lhand -19.2656 -15.7382
lfingers 7.12502
lthumb 7.04879 14.1245
rfemur -6.43647 12.6532 -8.29111
rtibia 6.87952
rfoot -14.9938 -24.1653
rtoes 34.7468
lfemur -16.9124 1.89458 -30.7643
ltibia 18.3537
lfoot -17.5555 3.75147
ltoes 8.45031
485
root 5.5755 17.3669 1.58447 17.8424 2.38793 1.22823
lowerback -16.3918 2.81806 10.7433
upperback -13.6666 2.53247 -0.123404
thorax -5.31201 0.449917 -5.85435
lowerneck -5.80669 14.6163 5.24768
upperneck 12.3333 18.8482 3.35551
head 4.82311 9.70925 1.36253
rclavicle -1.03368e-014 6.36111e-015
rhumerus 53.4213 -2.13678 -15.2908
rradius 106.687
rwrist -43.2687
rhand -5.47435 -41.678
rfingers 7.12502
rthumb 20.3376 -70.6331
lclavicle -1.03368e-014 6.36111e-015
lhumerus 38.7887 12.866 -7.48395
lradius 42.6675
lwrist 52.1186
lhand -19.1809 -15.5918
lfingers 7.12502
lthumb 7.13053 14.2681
rfemur -6.74276 12.7562 -8.4559
rtibia 7.15209
rfoot -16.469 -23.1582
rtoes 37.7144
lfemur -16.9822 1.96513 -30.8724
ltibia 18.3224
lfoot -17.5344 3.8034
ltoes 8.62327
486
root 5.57574 17.3672 1.5827 17.8823 2.29193 1.34988
lowerback -16.3259 2.78174 10.5801
upperback -13.7106 2.51356 -0.13182
thorax -5.39858 0.445976 -5.77704
lowerneck -5.74703 14.6448 5.29843
upperneck 12.2085 18.894 3.28291
head 4.78676 9.72799 1.3278
rclavicle -3.18055e-014 -3.97569e-015
rhumerus 53.2712 -2.58013 -15.2897
rradius 106.91
rwrist -44.3525
rhand -4.76986 -42.6253
rfingers 7.12502
rthumb 21.0145 -71.5068
lclavicle -3.18055e-014 -3.97569e-015
lhumerus 38.5768 12.9004 -7.69886
lradius 42.7456
lwrist 52.4271
lhand -19.7813 -15.5859
lfingers 7.12502
lthumb 6.5509 14.2928
rfemur -6.91905 12.7821 -8.65404
rtibia 7.3061
rfoot -16.088 -23.4132
rtoes 37.0047
lfemur -17.0344 1.97186 -31.027
ltibia 18.3169
lfoot -17.555 3.81762
ltoes 8.46482
487
root 5.57792 17.3695 1.57969 17.9396 2.29848 1.34596
lowerback -16.3079 2.75892 10.5873
upperback -13.732 2.48676 -0.113829
thorax -5.43813 0.429799 -5.76585
lowerneck -5.7196 14.6588 5.29132
upperneck 12.0179 18.9215 3.22533
head 4.72793 9.73528 1.30188
rclavicle 2.38542e-015 2.22639e-014
rhumerus 53.0907 -3.06017 -15.3143
rradius 107.142
rwrist -45.1566
rhand -4.18155 -43.0522
rfingers 7.12502
rthumb 21.5796 -71.8698
lclavicle 2.38542e-015 2.22639e-014
lhumerus 38.6406 13.198 -7.44593
lradius 42.5178
lwrist 52.1353
lhand -19.3489 -15.3603
lfingers 7.12502
lthumb 6.96835 14.505
rfemur -7.07387 12.7476 -8.6806
rtibia 7.43585
rfoot -15.4964 -23.8148
rtoes 35.9304
lfemur -17.1044 1.97401 -31.0328
ltibia 18.2982
lfoot -17.4951 3.81208
ltoes 8.05996
488
root 5.57977 17.3705 1.5763 17.9883 2.29856 1.29668
lowerback -16.2607 2.75926 10.6473
upperback -13.7887 2.49063 -0.0983937
thorax -5.52881 0.420888 -5.78437
lowerneck -5.62647 14.6757 5.27541
upperneck 11.8739 18.952 3.22494
head 4.66667 9.74829 1.29011
rclavicle 3.02153e-014 -2.62396e-014
rhumerus 52.8469 -3.36603 -15.2723
rradius 107.317
rwrist -45.2898
rhand -4.14121 -43.2334
rfingers 7.12502
rthumb 21.6184 -72.0466
lclavicle 3.02153e-014 -2.62396e-014
lhumerus 38.5329 13.3733 -7.535
lradius 42.4566
lwrist 52.2067
lhand -18.596 -15.0361
lfingers 7.12502
lthumb 7.69506 14.8039
rfemur -7.19079 12.7361 -8.6499
rtibia 7.5295
rfoot -15.4458 -23.8036
rtoes 35.9205
lfemur -17.156 1.95006 -30.9857
ltibia 18.2705
lfoot -17.4099 3.84363
ltoes 8.12566
489
root 5.57927 17.3689 1.57813 18.0044 2.22683 1.33577
lowerback -16.2723 2.75515 10.567
upperback -13.7772 2.49136 -0.0937392
thorax -5.50851 0.429091 -5.73372
lowerneck -5.69468 14.7005 5.24034
upperneck 11.8294 18.9856 3.21181
head 4.66187 9.76168 1.29599
rclavicle 3.57812e-015 1.11319e-014
rhumerus 52.6391 -3.73934 -15.1564
rradius 107.429
rwrist -45.5539
rhand -3.86365 -43.7247
rfingers 7.12502
rthumb 21.8849 -72.507
lclavicle 3.57812e-015 1.11319e-014
lhumerus 38.2782 13.3957 -7.92121
lradius 42.5842
lwrist 52.8149
lhand -19.2038 -15.1511
lfingers 7.12502
lthumb 7.1084 14.7096
rfemur -7.18277 12.7775 -8.72297
rtibia 7.43986
rfoot -15.6722 -23.6568
rtoes 36.4004
lfemur -17.1603 1.97177 -31.0395
ltibia 18.2559
lfoot -17.3984 3.84477
ltoes 8.49131
490
root 5.57905 17.3673 1.58302 18.0597 2.16207 1.3255
lowerback -16.3918 2.77525 10.5475
upperback -13.7326 2.5014 -0.077469
thorax -5.39297 0.444013 -5.69964
lowerneck -5.83312 14.7222 5.2107
upperneck 11.8445 19.0097 3.19765
head 4.68753 9.77084 1.30939
rclavicle 1.19271e-015 1.27222e-014
rhumerus 52.3391 -4.06575 -14.6599
rradius 107.294
rwrist -45.2811
rhand -4.23938 -42.7629
rfingers 7.12502
rthumb 21.5241 -71.5869
lclavicle 1.19271e-015 1.27222e-014
lhumerus 38.1345 13.4572 -8.14458
lradius 42.5655
lwrist 53.0497
lhand -19.3358 -15.3999
lfingers 7.12502
lthumb 6.98104 14.465
rfemur -7.09628 12.808 -8.74411
rtibia 7.13492
rfoot -16.2615 -23.2873
rtoes 37.4947
lfemur -17.1784 1.99934 -31.0372
ltibia 18.2061
lfoot -17.4197 3.81279
ltoes 8.59241
